# xmcd
#
# Track frame offsets:
#	150
#	22270
#	43773
#	68140
#	93093
#	111762
#	133886
#	156386
#	174963
#	196837
#	218485
#	243359
#	266827
#	286413
#	307576
#
# Disc length: 4356 seconds
#
# Revision: 2
# Processed by: cddbd v1.5.2PL0 Copyright (c) Steve Scherf et al.
# Submitted via: Jack! The Knife
#
DISCID=d011020f
DTITLE=Michele Zarrillo - L'amore vuole amore
DYEAR=1997
DGENRE=Pop
TTITLE0=L'amore vuole amore
TTITLE1=Ragazza d'argento
TTITLE2=Una rosa blu
TTITLE3=La notte dei pensieri
TTITLE4=Cinque giorni
TTITLE5=Il soppravvento
TTITLE6=Perdono
TTITLE7=L'elefante e la farfalla
TTITLE8=Strade di Roma
TTITLE9=Innamorando
TTITLE10=Adesso
TTITLE11=Non arriveranno i nostri
TTITLE12=Il canto del mare
TTITLE13=Su quel pianeta libero
TTITLE14=Gli assolati vetri
EXTD=
EXTT0=
EXTT1=
EXTT2=
EXTT3=
EXTT4=
EXTT5=
EXTT6=
EXTT7=
EXTT8=
EXTT9=
EXTT10=
EXTT11=
EXTT12=
EXTT13=
EXTT14=
PLAYORDER=
